# xmcd CD database file
#
# Track frame offsets:
#	182
#	15282
#	40305
#	58092
#	78285
#	101637
#	126152
#	149487
#	170192
#
# Disc length: 2517 seconds
#
# Revision: 0
# Processed by: cddbd v1.4PL0 Copyright (c) Steve Scherf et al.
# Submitted via: CDex 1.51
#
DISCID=7809d309
DTITLE=Douglas College Jazz Band - Blair Fisher, Director - Hot Stuff
DYEAR=1992
DGENRE=Jazz
TTITLE0=Matchpoint
TTITLE1=Sola Naci
TTITLE2=Looking Back
TTITLE3=Uno Mas
TTITLE4=Snthropology
TTITLE5=Man - Tuna
TTITLE6=Floreando
TTITLE7=Minor Bird
TTITLE8=Lisa's Theme
EXTD=YEAR: 1992
EXTT0=
EXTT1=
EXTT2=
EXTT3=
EXTT4=
EXTT5=
EXTT6=
EXTT7=
EXTT8=
PLAYORDER=
